<?xml version="1.0" encoding="UTF-8"?><svg id="Layer_1" xmlns="http://www.w3.org/2000/svg" viewBox="0 0 55.42 55.42"><defs><style>.cls-1{fill:#fff;}.cls-2{fill:#231f20;}</style></defs><circle class="cls-2" cx="27.71" cy="27.71" r="27.71"/><circle class="cls-1" cx="27.81" cy="27.69" r="24.63"/><path class="cls-2" d="m41.21,27.69c0,7.34-5.95,13.29-13.29,13.29s-13.29-5.95-13.29-13.29,5.95-13.29,13.29-13.29,13.29,5.95,13.29,13.29Zm-1.22-.38c0-2.55-2.13-4.63-4.73-4.63-2.05,0-3.78,1.25-4.45,3.03-.23.63-.83,1.03-1.5.95-.45-.02-.93-.05-1.4-.05h-.01c-.48,0-.95.02-1.4.05-.68.08-1.28-.33-1.5-.95-.65-1.78-2.4-3.03-4.43-3.03-2.63,0-4.73,2.08-4.73,4.63,0,1.2.45,2.28,1.2,3.1.3.33.43.73.38,1.18-.03.13-.03.25-.03.35,0,2.9,4.64,7.33,10.46,7.41h0c5.83-.07,10.58-4.51,10.58-7.41,0-.1-.03-.23-.03-.35-.08-.45.05-.85.38-1.18.75-.83,1.2-1.9,1.2-3.1Zm-19.48,2.97c-1.75,0-3.18-1.38-3.18-3.1s1.43-3.1,3.18-3.1,3.15,1.4,3.15,3.1-1.4,3.1-3.15,3.1Zm14.85-.19c-1.75,0-3.18-1.38-3.18-3.1s1.43-3.1,3.18-3.1,3.18,1.4,3.18,3.1-1.43,3.1-3.18,3.1Zm-15.43-4.84c-.63,0-1.13.48-1.13,1.08s.5,1.1,1.13,1.1,1.1-.5,1.1-1.1-.5-1.08-1.1-1.08Zm15.99-.24c-.63,0-1.13.48-1.13,1.08s.5,1.1,1.13,1.1,1.1-.5,1.1-1.1-.5-1.08-1.1-1.08Z"/><path class="cls-2" d="m4.91,25.56C5.98,13.8,15.87,4.55,27.87,4.55s21.89,9.24,22.97,21.01h.16c-1.08-11.85-11.04-21.17-23.13-21.17S5.82,13.71,4.75,25.56h.16Z"/><path class="cls-2" d="m50.24,33.38c-2.53,10.01-11.6,17.45-22.36,17.45s-19.83-7.43-22.36-17.45h-.17c2.54,10.1,11.67,17.61,22.53,17.61s19.99-7.5,22.53-17.61h-.17Z"/><path class="cls-2" d="m48.18,33.38c-2.48,8.91-10.64,15.46-20.31,15.46s-17.83-6.56-20.31-15.46h-1.47c2.52,9.7,11.33,16.88,21.78,16.88s19.26-7.18,21.78-16.88h-1.47Z"/><path class="cls-2" d="m6.89,25.56C7.96,14.89,16.96,6.54,27.87,6.54s19.92,8.35,20.98,19.02h1.42c-1.07-11.45-10.71-20.44-22.41-20.44S6.54,14.11,5.47,25.56h1.42Z"/><path class="cls-2" d="m42.18,25.56c-.46-3.14-1.94-5.95-4.08-8.1-2.62-2.62-6.23-4.23-10.22-4.23s-7.61,1.62-10.23,4.23c-2.14,2.14-3.62,4.96-4.08,8.1h-.57c.47-3.3,2-6.25,4.25-8.5,2.72-2.72,6.48-4.4,10.62-4.4s7.91,1.68,10.62,4.4c2.25,2.25,3.78,5.2,4.25,8.5h-.57Z"/><path class="cls-2" d="m12.61,23.44l-4.21-1.56.64-1.73.57.21-.43,1.15,1.28.47.37-1,.57.21-.37,1,1.8.67-.22.58Z"/><path class="cls-2" d="m13.36,21.47l-3.96-2.1.47-.88c.34-.64.9-.76,1.68-.35.23.12.41.26.54.42.13.16.19.35.2.58l2.12.37-.31.58-1.96-.39-.17.33,1.69.9-.29.55Zm-3.14-2.37l1.24.66.16-.31c.05-.1.08-.18.08-.25,0-.07-.01-.14-.05-.2-.04-.06-.09-.11-.16-.16-.07-.05-.16-.1-.26-.16s-.19-.09-.27-.12c-.08-.03-.16-.04-.23-.04-.14.01-.26.11-.36.3l-.15.28Z"/><path class="cls-2" d="m11.73,17.34c-.15-.11-.26-.23-.33-.36-.08-.13-.12-.26-.14-.4-.01-.13,0-.26.03-.39.04-.13.09-.24.16-.34.07-.1.17-.19.28-.26.11-.07.23-.12.36-.15.13-.02.27-.02.42.01.15.03.29.1.44.21l1.91,1.4c.15.11.27.23.34.36.07.13.12.26.13.39.01.14,0,.27-.03.39-.04.13-.09.24-.16.34-.07.1-.17.19-.28.26-.11.07-.23.12-.36.14-.13.03-.27.03-.41,0-.14-.03-.29-.1-.45-.21l-1.91-1.4Zm2.28.9c.13.09.24.13.35.1.11-.02.2-.08.26-.17.07-.09.1-.19.08-.3-.01-.11-.08-.21-.2-.3l-1.91-1.4c-.13-.09-.24-.13-.35-.1-.11.02-.2.08-.26.17-.07.09-.1.19-.08.3.01.11.08.21.2.3l1.91,1.4Z"/><path class="cls-2" d="m13.51,15.01c-.13-.13-.22-.26-.28-.4-.06-.14-.08-.28-.08-.42,0-.13.03-.26.09-.38.05-.12.12-.23.21-.31.09-.09.19-.16.31-.22.12-.06.25-.09.38-.1.13,0,.27.02.41.07.14.05.28.14.41.27l.16.16-.43.44-.16-.16c-.11-.11-.22-.16-.33-.15-.11,0-.21.05-.28.13-.08.08-.12.18-.13.29,0,.11.05.22.16.33l1.69,1.66c.11.11.22.16.33.15.11,0,.21-.05.28-.13.08-.08.12-.18.13-.29,0-.11-.05-.22-.16-.33l-.6-.59-.34.35-.4-.4.78-.79,1.01.99c.13.13.23.27.28.4.05.14.08.27.07.4,0,.14-.03.27-.09.39-.05.12-.12.23-.21.31-.09.09-.19.16-.31.22-.12.06-.25.09-.38.09-.13.01-.27,0-.41-.06-.14-.05-.28-.14-.41-.27l-1.69-1.66Z"/><path class="cls-2" d="m18.54,15.02l-2.5-3.73,1.53-1.03.34.5-1.02.68.73,1.09.89-.6.34.5-.89.6.73,1.09,1.02-.68.36.53-1.53,1.03Z"/><path class="cls-2" d="m20.27,13.87l-1.93-4.05.54-.26,2.01,2.04h.01s-1.16-2.44-1.16-2.44l.56-.27,1.93,4.05-.53.25-2.02-2.03h-.01s1.16,2.44,1.16,2.44l-.56.27Z"/><path class="cls-2" d="m22.99,12.69l-1.16-3.7-.68.21-.18-.58,1.96-.61.18.58-.68.21,1.16,3.7-.59.18Z"/><path class="cls-2" d="m24.4,12.28l-.77-4.42,1.82-.32.1.6-1.21.21.23,1.3,1.05-.18.1.6-1.05.18.23,1.3,1.21-.21.11.63-1.82.32Z"/><path class="cls-2" d="m26.46,11.94l-.11-4.49,1-.02c.73-.02,1.1.41,1.12,1.29,0,.26-.03.49-.1.68-.07.19-.21.34-.4.46l.72,2.03-.66.02-.62-1.9h-.37s.05,1.92.05,1.92l-.62.02Zm.52-3.9l.03,1.4h.35c.11-.01.2-.03.26-.06.06-.03.11-.08.15-.14.03-.06.05-.13.06-.22.01-.09.01-.19.01-.3,0-.11-.01-.21-.03-.3-.01-.09-.04-.16-.08-.22-.08-.12-.23-.17-.44-.17h-.32Z"/><path class="cls-2" d="m28.88,11.91l.58-4.45.92.12c.17.02.31.06.44.13.12.06.23.16.32.29.09.13.14.28.16.44.02.16.01.38-.02.64-.03.2-.06.37-.1.5-.04.13-.1.26-.19.37-.1.13-.23.23-.38.3-.15.06-.34.08-.57.05l-.31-.04-.23,1.74-.61-.08Zm1.11-3.77l-.2,1.51.29.04c.12.02.22,0,.3-.02.07-.03.13-.07.17-.14.04-.06.07-.13.09-.22.02-.09.03-.19.05-.31.01-.1.02-.2.03-.3,0-.09,0-.18-.02-.25-.02-.07-.06-.14-.12-.18-.06-.05-.15-.08-.27-.09l-.32-.04Z"/><path class="cls-2" d="m31.17,12.24l1.26-4.31.96.28c.7.2.93.73.68,1.57-.07.25-.18.46-.3.61-.13.16-.3.26-.52.31l.07,2.15-.63-.18-.02-2-.36-.1-.54,1.84-.59-.17Zm1.68-3.55l-.39,1.34.34.1c.1.03.19.04.26.03.07-.01.13-.04.18-.09.05-.05.09-.11.13-.19.04-.08.07-.17.1-.28s.05-.21.07-.29c.01-.09.01-.16,0-.24-.04-.13-.16-.23-.37-.29l-.31-.09Z"/><path class="cls-2" d="m33.52,13l1.75-4.13.57.24-1.75,4.13-.57-.24Z"/><path class="cls-2" d="m37.86,11.62l-.54-.3.07-.13c.07-.13.11-.26.1-.38s-.08-.23-.21-.31c-.07-.04-.14-.06-.2-.06-.06,0-.12.02-.17.05-.06.03-.1.07-.15.13-.04.05-.09.11-.12.18-.04.08-.08.14-.1.2-.02.05-.04.11-.04.16,0,.05,0,.1.03.16.02.05.06.11.12.18l.32.4c.09.12.16.23.2.33.04.11.05.21.05.32-.01.11-.04.22-.09.34-.05.12-.11.25-.19.39-.09.16-.2.31-.31.43-.11.12-.23.21-.36.27-.13.06-.27.09-.43.08-.15,0-.32-.06-.49-.16-.13-.07-.24-.17-.32-.28-.09-.11-.15-.23-.18-.36-.03-.13-.04-.26-.03-.4.02-.14.06-.27.13-.41l.12-.21.54.3-.1.18c-.06.1-.08.21-.07.33.01.12.09.21.22.29.09.05.17.08.24.08.07,0,.13-.02.19-.05.06-.04.11-.09.15-.16.05-.07.09-.15.14-.23.06-.1.1-.19.13-.26.03-.07.05-.13.05-.18,0-.05-.02-.11-.04-.15-.03-.05-.06-.11-.11-.17l-.29-.38c-.18-.23-.26-.45-.25-.66.01-.21.09-.43.23-.68.08-.15.18-.27.29-.38.11-.11.24-.19.37-.24.13-.05.26-.08.41-.07.15,0,.3.06.46.15.13.08.24.17.32.28.08.11.14.24.17.37.06.27.03.51-.1.74l-.15.27Z"/><path class="cls-2" d="m36.54,14.59l2.73-3.56,1.46,1.12-.37.48-.97-.75-.8,1.04.85.65-.37.48-.85-.65-.8,1.04.97.75-.39.51-1.46-1.12Z"/><path class="cls-2" d="m41.87,15.07l-.43-.44.1-.1c.1-.1.17-.22.2-.34.03-.12-.01-.24-.12-.35-.06-.06-.12-.1-.18-.11-.06-.01-.12-.01-.18,0-.06.02-.12.04-.18.08-.06.04-.11.09-.17.14-.06.06-.11.12-.15.16-.04.05-.06.09-.08.14-.02.05-.02.1-.01.16,0,.06.03.13.06.21l.19.47c.06.14.09.26.1.37,0,.11,0,.22-.04.32-.04.1-.1.2-.18.31-.08.1-.18.21-.29.32-.13.13-.27.24-.41.33-.14.09-.28.14-.42.16-.14.02-.29,0-.43-.04-.14-.05-.29-.15-.43-.29-.11-.11-.18-.23-.24-.36-.05-.13-.08-.26-.07-.4,0-.13.03-.27.08-.39.05-.13.13-.25.24-.35l.17-.17.43.44-.14.14c-.08.08-.14.18-.16.29-.02.11.02.23.14.34.07.07.14.12.21.14.06.02.13.02.19,0,.06-.02.13-.05.19-.11.06-.05.13-.12.2-.19.08-.08.15-.15.2-.21.05-.06.08-.11.1-.16.01-.05.01-.11,0-.16-.01-.05-.03-.12-.06-.2l-.18-.45c-.11-.27-.13-.5-.06-.7.07-.2.2-.39.4-.59.12-.12.25-.21.39-.29.14-.07.28-.12.42-.13.14-.02.28,0,.41.05.14.05.27.14.4.27.11.11.19.23.23.36.05.13.07.27.07.4-.01.27-.11.5-.3.69l-.22.22Z"/><path class="cls-2" d="m40.45,18.45l3.68-2.56.35.51-3.68,2.56-.35-.51Z"/><path class="cls-2" d="m41.08,19.33l3.94-2.14.28.52-1.93,2.11h0s2.38-1.28,2.38-1.28l.3.54-3.94,2.14-.28-.51,1.92-2.12h0s-2.37,1.28-2.37,1.28l-.3-.54Z"/><path class="cls-2" d="m44.16,23.02l-.26.1c-.13.05-.26.07-.4.07-.13,0-.26-.03-.38-.08-.12-.05-.23-.12-.32-.21-.09-.09-.17-.2-.21-.33-.04-.11-.07-.23-.08-.35-.01-.13,0-.25.05-.37.05-.12.12-.23.22-.34.1-.1.25-.19.44-.26l2.32-.85c.14-.05.27-.08.41-.07.14,0,.26.03.38.08.12.05.22.13.31.22.09.1.16.22.22.36.1.27.09.53-.03.77-.06.12-.14.22-.25.32-.11.09-.23.17-.38.22l-.24.09-.21-.58.2-.07c.12-.04.21-.11.27-.21.06-.1.07-.2.03-.31-.05-.14-.13-.22-.24-.24-.11-.01-.24,0-.38.06l-2.15.79c-.12.05-.22.11-.28.19-.06.08-.07.19-.02.32.01.04.04.08.07.11.03.04.07.07.11.1.04.02.1.04.16.04.06,0,.14-.01.22-.04l.21-.08.21.58Z"/><path class="cls-2" d="m49.55,29.54l1.56,3.05h-3.78c-2.19,8.77-10.11,15.28-19.52,15.28s-17.33-6.51-19.52-15.28h-3.78l1.56-3.05-1.56-3.05h8.72v1.28c.04,8.02,6.56,14.54,14.57,14.54s14.48-6.47,14.57-14.45v-1.37h8.72l-1.56,3.05h0Zm-37.11,9.38l1.07-.83.81,1.05.38-.3-.81-1.05.74-.57.92,1.2.39-.3-1.28-1.66-2.59,1.99.35.46Zm2.73,3l.47.44.52-1.53c.35.15.73.11,1.04-.21.41-.43.33-.98-.12-1.4l-.98-.94-2.25,2.36.42.4.91-.95.49.47-.48,1.36Zm1-2.88l.56.53c.19.18.24.43,0,.68-.23.24-.49.2-.67.03l-.56-.53.67-.7Zm.83,2.36c-.51.78-.48,1.68.34,2.23.82.54,1.67.2,2.18-.58.51-.78.48-1.68-.34-2.23-.82-.54-1.67-.2-2.18.58Zm.5.32c.35-.54.9-.83,1.42-.5.52.34.46.97.11,1.5-.35.54-.9.83-1.42.5-.52-.34-.46-.97-.11-1.5Zm3.88,1.99l-.18.44.67.27-.03.08c-.18.44-.57.59-.99.42-.56-.23-.67-.8-.4-1.44.26-.64.76-.99,1.34-.76.34.14.52.4.57.76l.52-.12c-.09-.49-.39-.88-.91-1.09-.92-.38-1.7.12-2.06,1-.35.85-.16,1.72.68,2.06.41.17.75.1.99-.07h0s-.14.36-.14.36l.48.2.66-1.63-1.18-.48Zm3.9,2.87c.56.08,1-.13,1.31-.52l-.39-.33c-.2.28-.48.43-.83.38-.63-.09-.82-.68-.73-1.31.09-.63.45-1.14,1.06-1.05.35.05.57.27.69.61l.47-.22c-.18-.47-.56-.79-1.11-.87-.93-.13-1.56.51-1.7,1.46-.14.95.29,1.73,1.23,1.87Zm3.73.1l.64-.02-.72-1.44c.35-.14.59-.44.58-.88-.02-.59-.46-.92-1.07-.91l-1.36.03.08,3.26h.58s-.03-1.33-.03-1.33l.67-.02.62,1.3Zm-1.33-2.74l.77-.02c.26,0,.47.14.48.48,0,.34-.2.49-.46.5l-.77.02-.02-.97Zm4.78,2.23l-.09-.48-1.53.29-.17-.9,1.31-.25-.09-.48-1.31.25-.16-.87,1.5-.28-.09-.48-2.07.39.6,3.21,2.1-.39Zm2.75-.93l.58-.21-2.23-2.66-.66.24v3.47s.57-.2.57-.2l-.02-.84,1.23-.45.53.66Zm-1.77-.72l-.03-1.48h0s.93,1.15.93,1.15l-.91.33Zm3.73-.27l-1.32-2.43.91-.5-.24-.43-2.34,1.27.24.43.91-.5,1.32,2.43.51-.28Zm1.84-1.18l-1.87-2.67-.48.33,1.87,2.67.48-.33Zm0-4.25l1.08,2.46h0s-2.33-1.33-2.33-1.33l-.46.41,3.01,1.68.48-.43-1.33-3.18-.45.4Zm4.37-.1l-.38-.31-.98,1.21-.71-.58.84-1.03-.38-.31-.84,1.03-.69-.56.97-1.19-.38-.31-1.33,1.63,2.53,2.06,1.35-1.66ZM9.2,28.28c-.14.29-.27.59-.27.59,0,0-.08.01-.2.03-.12.02-.28.04-.44.06-.32.04-.64.08-.64.08,0,0,.23.23.45.47.23.23.47.47.47.47l-.23,1.28s.07-.04.19-.09c.11-.06.26-.14.41-.22.29-.16.59-.32.59-.32l1.21.58-.29-1.28s.23-.23.44-.48c.22-.24.43-.49.43-.49,0,0-.32-.02-.64-.05-.32-.03-.64-.08-.64-.08,0,0-.15-.29-.3-.58-.15-.29-.29-.58-.29-.58,0,0-.13.3-.27.59h0Zm36.57,0c-.14.29-.27.59-.27.59,0,0-.08.01-.2.03-.12.02-.28.04-.43.06-.32.04-.64.08-.64.08,0,0,.23.23.45.47.23.23.47.47.47.47l-.23,1.28s.07-.04.19-.09c.11-.06.26-.14.41-.22.29-.16.59-.32.59-.32l1.21.58-.28-1.28s.23-.23.44-.48c.22-.24.43-.49.43-.49,0,0-.32-.02-.64-.05-.32-.03-.64-.08-.64-.08,0,0-.15-.29-.3-.58-.15-.29-.29-.58-.29-.58,0,0-.13.3-.27.59h0Z"/></svg>